# xmcd
#
# Track frame offsets:
# 225
# 19803
# 32247
# 46451
# 68473
# 81217
# 92604
# 115233
# 132899
# 150870
#
# Disc length: 2177 seconds
#
#
# Revision: 0
# Processed by: cddbd v1.4PL0 Copyright (c) Steve Scherf et al.
# Submitted via: FreeRIP 2.50 
#
DISCID=72087e0a
DTITLE=Tom Bragg - Blessings from the Heart
DYEAR=1997
DGENRE=Gospel
TTITLE0=Stand By Me
TTITLE1=Sinner Man
TTITLE2=In His Time
TTITLE3=Melissa's Song
TTITLE4=Trust And Love
TTITLE5=Jesus On The Mainline
TTITLE6=Mission Song
TTITLE7=Show Me Your Ways
TTITLE8=Did You Know
TTITLE9=Amazing Grace
EXTD=
EXTT0=
EXTT1=
EXTT2=
EXTT3=
EXTT4=
EXTT5=
EXTT6=
EXTT7=
EXTT8=
EXTT9=
PLAYORDER=
